<mxfile host="app.diagrams.net" agent="Mozilla/5.0 (Linux; Android 10; K) AppleWebKit/537.36 (KHTML, like Gecko) Chrome/132.0.0.0 Mobile Safari/537.36 OPR/87.0.0.0" version="26.0.10">
  <diagram name="PÃ¡gina-1" id="FsU5Mk1da39Gwp7JTK0F">
    <mxGraphModel grid="0" page="0" gridSize="10" guides="1" tooltips="1" connect="1" arrows="1" fold="1" pageScale="1" pageWidth="827" pageHeight="1169" math="0" shadow="0">
      <root>
        <mxCell id="0" />
        <mxCell id="1" parent="0" />
        <mxCell id="S3Izd4t_bLW7ZDt219EU-3" style="edgeStyle=none;curved=1;rounded=0;orthogonalLoop=1;jettySize=auto;html=1;fontSize=12;startSize=8;endSize=8;" edge="1" parent="1" source="S3Izd4t_bLW7ZDt219EU-1" target="S3Izd4t_bLW7ZDt219EU-2">
          <mxGeometry relative="1" as="geometry" />
        </mxCell>
        <mxCell id="S3Izd4t_bLW7ZDt219EU-1" value="Inicio" style="ellipse;whiteSpace=wrap;html=1;" vertex="1" parent="1">
          <mxGeometry x="242" y="7" width="151" height="58" as="geometry" />
        </mxCell>
        <mxCell id="S3Izd4t_bLW7ZDt219EU-2" value="Entrar en Githun.com" style="rounded=1;whiteSpace=wrap;html=1;" vertex="1" parent="1">
          <mxGeometry x="237.25" y="114" width="160.5" height="45" as="geometry" />
        </mxCell>
      </root>
    </mxGraphModel>
  </diagram>
</mxfile>
